<?xml version="1.0" encoding="utf-8"?>
<svg viewBox="0 0 500 500" xmlns="http://www.w3.org/2000/svg" xmlns:bx="https://boxy-svg.com">
  <rect style="fill-opacity: 0.79; paint-order: fill; fill: rgba(174, 174, 174, 0.49);" x="0.521" y="-4.095" width="498.957" height="503.889" rx="5" ry="5"/>
  <ellipse style="paint-order: fill; fill: rgb(6, 170, 253); fill-opacity: 0.5;" cx="250" cy="269.672" rx="200.788" ry="195.576"/>
  <ellipse style="paint-order: fill; fill: rgb(17, 225, 244); fill-opacity: 0.5;" cx="246.048" cy="310.883" rx="133.397" ry="158.903"/>
  <ellipse style="paint-order: fill; fill: rgba(255, 248, 119, 0.98); fill-opacity: 0.63;" cx="245.28" cy="347.373" rx="98.895" ry="104.627"/>
  <g>
    <path d="M -260.812 -484.716 Q -250 -492.997 -239.188 -484.716 L -170.715 -432.267 Q -159.903 -423.986 -181.526 -423.986 L -318.474 -423.986 Q -340.097 -423.986 -329.285 -432.267 Z" style="fill: rgb(98, 136, 159);" transform="matrix(-1, 0, 0, -1, 0, 0)" bx:shape="triangle -340.097 -492.997 180.194 69.011 0.5 0.12 1@231be239"/>
    <path d="M 239.188 438.15 Q 250 429.869 260.812 438.15 L 329.285 490.599 Q 340.097 498.88 318.474 498.88 L 181.526 498.88 Q 159.903 498.88 170.715 490.599 Z" style="fill: rgb(98, 136, 159);" bx:shape="triangle 159.903 429.869 180.194 69.011 0.5 0.12 1@aa2988a5"/>
    <ellipse style="paint-order: fill; fill: rgb(249, 178, 0);" cx="244.852" cy="395.487" rx="54.431" ry="52.695"/>
  </g>
  <text style="fill: rgb(3, 26, 129); fill-opacity: 0.62; font-family: Arial, sans-serif; font-size: 32.2743px; font-weight: 700; letter-spacing: 3.2px; line-height: 69.7124px; text-anchor: middle; white-space: pre;" transform="matrix(0.619685, 0, 0, 0.619689, 249.86937, 493.793518)">InnerLight</text>
</svg>